<svg id="Layer_1" data-name="Layer 1" xmlns="http://www.w3.org/2000/svg" xmlns:xlink="http://www.w3.org/1999/xlink" viewBox="0 0 841.89 321.13"><defs><style>.cls-1{fill:none;}.cls-2{clip-path:url(#clip-path);}.cls-3{fill:#fff;}</style><clipPath id="clip-path"><rect class="cls-1" x="18.56" y="24.98" width="804.77" height="269.45"/></clipPath></defs><title>Untitled-1</title><g class="cls-2"><path class="cls-3" d="M708.57,255.38c-1.46-1.95-3.42-3.42-4.88-5.37a6.71,6.71,0,0,1,1.46-8.78c2-1.47,4.4-2.45,6.35-3.91.49,0,1-.49,1.47-.49a20.16,20.16,0,0,0-4.4-2.44c-6.35-4.39-9.77-10.25-9.77-18.06,0-5.37,1-10.25,4.4-14.64s8.3-6.84,13.67-8.3c3.42-1,6.84-1,10.26-1.47h28.81v10.74H742.75a21.7,21.7,0,0,0,2.93,3.42c6.35,7.32,4.89,17.57-1,24.89-3.91,5.37-9.77,7.33-16.12,8.3a62.24,62.24,0,0,0-9.27,2c-1.47.48-2.94,1-3.42,2.44-1,2-.49,3.9,1.46,4.39a52.69,52.69,0,0,0,9.28,3.42c5.37,1.46,11.23,2.44,16.6,4.39,5.37,1.46,9.77,4.88,11.72,10.25,2.45,6.35,2,12.69-2.44,18.06-4.39,5.86-10.74,8.3-17.58,9.28a122.3,122.3,0,0,1-12.7,1c-7.81,0-15.13-1.46-21.48-5.86a18.64,18.64,0,0,1-6.84-22.94c1.47-3.9,4.88-6.34,8.79-8.3C704.66,256.85,706.62,255.87,708.57,255.38Zm15.63,28.8a21.86,21.86,0,0,0,5.37-.49,23.16,23.16,0,0,0,10.25-3.41c3.42-2.45,4.89-7.81,1-11.23a15.69,15.69,0,0,0-6.84-3.9,69.54,69.54,0,0,0-10.74-2A21.31,21.31,0,0,0,710,265.63c-3.42,1.95-5.38,4.88-4.89,8.79s2.93,5.86,5.86,7.32C715.41,283.69,719.8,283.69,724.2,284.18Zm0-80.05c-4.88,0-8.79,2-11.23,6.34-2.45,3.91-2.45,10.25,1.46,14.16a14,14,0,0,0,16.6,2.44c6.35-3.42,8.79-10.25,5.38-16.6C733,205.59,729.08,204.13,724.2,204.13Z"/><path class="cls-3" d="M687.09,227.07H639.72v2.44c1.46,10.25,8.3,17.57,18.55,18.55,6.84,1,12.7-.49,19.05-3.42,2.44-1,4.88-2.93,7.32-3.9.49,0,.49-.49,1-.49v13.18c-2,1-4.39,2.44-6.84,3.42-6.83,3.41-14.65,3.9-22,3.9-6.35-.49-12.7-1.95-17.58-6.35-6.84-5.36-10.75-12.2-12.21-21a42.73,42.73,0,0,1-1-8.29c0-5.37.49-11.23,2.93-16.11,2.93-6.84,7.33-12.21,13.68-15.62A35.38,35.38,0,0,1,654.37,190c5.86-.49,11.72,0,16.6,2.93A28.49,28.49,0,0,1,684.15,208a36.58,36.58,0,0,1,2.45,17.57C687.57,226.58,687.57,226.58,687.09,227.07Zm-46.89-8.3h33.7c0-5.37-1.95-10.25-6.35-13.18-5.86-3.9-12.21-3.9-18.55-1C643.62,207.54,641.18,212.42,640.2,218.77Z"/><path class="cls-3" d="M756.92,191.92h15.62c5.86,12.21,11.72,24.9,18.07,38.08l17.58-38.08h15.14L775,294.43H759.84c7.82-16.6,15.63-32.7,23-49.3C774.5,227.56,765.7,210,756.92,191.92Z"/><path class="cls-3" d="M567.44,255.87c-5.37,3.42-11.23,6.34-17.58,4.39-2.93-1-4.39-2.93-5.37-5.86a27.37,27.37,0,0,1-3.42,2,29,29,0,0,1-15.62,4.39c-8.3-.49-14.16-5.86-15.63-13.18s1.95-13.18,7.81-18.06c4.89-3.42,10.75-5.37,16.61-7.32,3.41-1,6.35-2.44,9.76-3.42,0-4.88,1-9.27-3.41-13.18a9.17,9.17,0,0,0-6.84-2.44c-6.35-.49-12.21,1.95-17.09,5.86a61.49,61.49,0,0,0-6.35,5.86V202.66a7,7,0,0,1,2.93-5.86A27.52,27.52,0,0,1,528.38,191c5.86-.49,11.72-.49,17.09,2,6.84,2.93,10.74,7.81,11.72,15.13,0,1.95.49,3.42.49,5.37v33.19a9.67,9.67,0,0,0,.48,3.42c.49,1.47,1.47,2.44,2.94,1.47A47.87,47.87,0,0,0,566,249c.49-.49,1-.49,1.95-1A41.83,41.83,0,0,0,567.44,255.87ZM544,226.58a33.31,33.31,0,0,0-3.9,1.47c-4.4,1.46-8.79,2.92-12.7,5.85s-4.88,6.35-3.9,11.23a8.72,8.72,0,0,0,2.92,4.39c2.45,2,5.37,2.44,8.79,2a15.81,15.81,0,0,0,8.79-4.89Z"/><path class="cls-3" d="M616.77,191.92v12.21H595.28v33.19a17.4,17.4,0,0,0,1.46,6.84,8,8,0,0,0,7.82,4.88,33.72,33.72,0,0,0,11.72-2.44c1.46-.49,2.44-1.47,4.39-2v12.69a24.79,24.79,0,0,1-8.3,3.42,33.67,33.67,0,0,1-17.09,0c-7.33-2.44-12.21-7.32-12.7-15.13a109.89,109.89,0,0,1-.49-12.69V204.62H570.86a2,2,0,0,1,.49-2.45c4.88-4.88,9.77-9.27,14.16-14.15l8.79-8.79c.49-.49,1-.49,1.47-1.46v14.15Z"/><path class="cls-3" d="M445.85,244.64v12.69a48.36,48.36,0,0,0-5.37,2.44c-7.33,2.44-14.65,2.93-22-.48-6.35-2.93-10.25-7.81-10.74-14.65-.49-12.69-.49-25.38-.49-38.07v-2.44H395.55c.49-1,.49-2,1-2.44l23.93-23.92a.47.47,0,0,0,.48-.49v14.15h21.49v12.21H420.94v31.73a27.68,27.68,0,0,0,.49,6.34c1.47,5.37,5.37,7.81,10.75,6.84,2.44-.49,4.39-1,6.83-1.47C441.46,247.08,443.41,245.62,445.85,244.64Z"/><path class="cls-3" d="M456.6,191.92h13.67v14.16c.48-.49,1-.49,1-1,2-2.44,3.91-5.37,5.86-7.81,3.91-3.9,7.82-7.32,14.17-6.83a17.37,17.37,0,0,1,9.76,3.9c1.47,1,2.93,2.45,4.89,3.91q-3.68,5.85-7.33,11.71c-1.95-1.46-3.42-2.44-5.37-3.9a12.46,12.46,0,0,0-11.72-2,16.16,16.16,0,0,0-8.79,8.3,23.09,23.09,0,0,0-2.93,11.71v35.63H456.11C456.6,237.32,456.6,214.87,456.6,191.92Z"/><path class="cls-3" d="M418,95.76h6.83v25.38H418Z"/><path class="cls-3" d="M443.9,69.4h25.39v6.83H443.9Z"/><path class="cls-3" d="M399,69.4v6.83H373.58V69.4Z"/><path class="cls-3" d="M424.85,50.36H418V25h6.83Z"/><path class="cls-3" d="M452.69,108.94,435.11,91.37a44.72,44.72,0,0,0,4.39-4.88l18.07,18.06A43.81,43.81,0,0,1,452.69,108.94Z"/><path class="cls-3" d="M385.3,41.58l4.39-4.4c5.86,5.86,11.72,11.72,18.07,17.58a43.81,43.81,0,0,0-4.88,4.39Z"/><path class="cls-3" d="M452.69,36.69l4.39,4.4L439.5,58.66l-4.39-4.39Q443.9,46.22,452.69,36.69Z"/><path class="cls-3" d="M389.69,108.94a43.81,43.81,0,0,1-4.39-4.88l17.58-17.57c1.46,1.46,2.93,2.92,4.88,4.88C401.9,97.22,395.55,103.08,389.69,108.94Z"/><path class="cls-3" d="M18.56,258.31V103.08h33.7c14.16.49,28.32,2,41.5,7.81,20.52,8.79,33.21,24.41,38.58,45.89A112.6,112.6,0,0,1,134.79,188a76.15,76.15,0,0,1-5.38,25.38,65.89,65.89,0,0,1-29.3,33.68c-10.25,5.86-21.49,8.79-33.2,9.77-11.24,1.46-22.47,1.46-34.19,1.46H18.56ZM48.84,231h1a117.84,117.84,0,0,0,18.56-1c14.65-2.93,24.91-10.74,31.25-24.41,2.94-6.83,3.91-13.67,4.4-21a73.85,73.85,0,0,0-3.42-27.33c-4.39-12.21-13.18-21-25.88-25.39-8.3-2.93-16.6-2.93-24.91-2.44h-.48C48.84,163.12,48.84,196.81,48.84,231Z"/><path class="cls-3" d="M195.34,102.59h37.11a73,73,0,0,1,31.74,6.84c12.7,6.83,20,17.57,22,31.73a58.25,58.25,0,0,1-1,22.45c-2.93,11.23-10.26,19.53-20.51,25.87a52.77,52.77,0,0,1-24.42,7.33,112.16,112.16,0,0,1-12.69.48h-2v26.85c-10.25,3.42-20,7.32-30.27,10.74ZM225.61,127v45.4c5.86,0,11.72.49,17.58-1.47s9.28-5.85,10.75-11.71a33.87,33.87,0,0,0,0-17.09,19.47,19.47,0,0,0-9.28-12.2C238.8,127,232.45,127,225.61,127Z"/><path class="cls-3" d="M321.82,187c8.78-6.34,17.57-12.69,26.36-19.52a25.89,25.89,0,0,1,3.42,1.95,112.78,112.78,0,0,1,21.49,15.13,39.75,39.75,0,0,1,12.69,25.87,50,50,0,0,1-2.92,23.92c-4.4,11.72-12.21,19.53-23.93,23.43-5.86,2.44-12.21,2.93-18.56,3.42-8.79.49-18.07,0-26.37-2.93-9.77-2.93-18.56-8.3-24.42-17.08a9.84,9.84,0,0,0-1.95-2.93c6.35-6.84,12.7-14.16,18.56-21,1.46,1.95,2.44,4.39,3.9,5.85,6.35,7.33,14.16,11.72,23.93,11.72,3.42,0,6.84,0,10.26-1.47a14.67,14.67,0,0,0,10.25-13.17c1-8.3-2.93-13.67-8.79-18.55-6.83-5.37-14.65-9.77-22.46-14.16C322.79,187.53,322.3,187,321.82,187Z"/><path class="cls-3" d="M380.42,119.19c-5.86,6.84-12.21,13.18-18.07,20-2-1.95-2.93-4.39-4.89-5.85-6.35-5.86-14.16-8.79-22.95-7.32-11.23,2-16.11,13.17-10.25,22.94a47.76,47.76,0,0,0,8.3,8.78,10.61,10.61,0,0,0,2.44,1.47,314,314,0,0,1-25.39,19c-1.47-1-2.93-2.44-4.4-3.42-10.25-9.28-14.65-21-14.65-34.66.49-19,12.21-34.17,31.26-39.05a60.23,60.23,0,0,1,37.11,1,45.23,45.23,0,0,1,20.51,15.13C379.93,118.21,379.93,118.7,380.42,119.19Z"/><path class="cls-3" d="M148,247.57v-90.3h28.32v83.47C167,242.69,157.25,245.13,148,247.57Z"/><path class="cls-3" d="M178.74,116.26a16.61,16.61,0,1,1-16.61-16.59A16.47,16.47,0,0,1,178.74,116.26Z"/><path class="cls-3" d="M196.31,257.82V243.18c9.77-2.93,19.53-5.86,29.79-9.28v23.92Z"/><path class="cls-3" d="M148.46,253.92c9.28-2,19-3.91,28.32-5.86v9.76H148.46Z"/></g></svg>